<svg width="55" height="55" viewBox="0 0 55 55" fill="none" xmlns="http://www.w3.org/2000/svg">
<circle cx="27.5" cy="27.5" r="27.5" fill="#FF2929"/>
<path d="M26.3198 33.97C26.4598 34.08 26.5998 34.18 26.7498 34.29C27.8898 35.12 29.0398 35.78 30.1898 36.27C31.3398 36.76 32.4298 37 33.4498 37C34.1498 37 34.7998 36.87 35.3998 36.62C36.0098 36.37 36.5498 35.98 37.0398 35.44C37.3298 35.12 37.5498 34.78 37.7198 34.42C37.8898 34.06 37.9698 33.69 37.9698 33.33C37.9698 33.05 37.9098 32.8 37.8098 32.55C37.6998 32.3 37.5198 32.09 37.2598 31.91L33.9498 29.56C33.6998 29.39 33.4698 29.26 33.2498 29.17C33.0298 29.08 32.8298 29.04 32.6398 29.04C32.3898 29.04 32.1598 29.11 31.9298 29.25C31.6998 29.37 31.4598 29.56 31.2098 29.81L30.4498 30.56C30.3398 30.67 30.2098 30.73 30.0398 30.73C29.9498 30.73 29.8698 30.72 29.7898 30.69C29.7198 30.66 29.6598 30.63 29.6098 30.61C29.4198 30.51 29.1998 30.37 28.9598 30.19" stroke="white" stroke-width="2" stroke-miterlimit="10" stroke-linecap="round" stroke-linejoin="round"/>
<path d="M26.73 28.22C26.21 27.69 25.73 27.16 25.28 26.64C24.84 26.12 24.53 25.69 24.35 25.36C24.33 25.3 24.3 25.24 24.27 25.16C24.25 25.08 24.24 25.01 24.24 24.93C24.24 24.77 24.29 24.64 24.4 24.53L25.16 23.74C25.4 23.5 25.59 23.26 25.72 23.03C25.86 22.8 25.93 22.56 25.93 22.32C25.93 22.13 25.88 21.92 25.79 21.71C25.7 21.49 25.57 21.26 25.39 21.01L23.07 17.74C22.89 17.48 22.66 17.3 22.4 17.18C22.15 17.06 21.87 17 21.59 17C20.85 17 20.15 17.31 19.51 17.94C18.98 18.44 18.6 19 18.36 19.61C18.12 20.21 18 20.86 18 21.54C18 22.58 18.24 23.67 18.72 24.81C19.2 25.94 19.86 27.08 20.68 28.22C21.51 29.36 22.44 30.45 23.47 31.49" stroke="white" stroke-width="2" stroke-miterlimit="10" stroke-linecap="round" stroke-linejoin="round"/>
<path d="M38 17L18 37" stroke="white" stroke-width="2" stroke-linecap="round" stroke-linejoin="round"/>
</svg>
