<svg width="55" height="55" viewBox="0 0 55 55" fill="none" xmlns="http://www.w3.org/2000/svg">
<circle cx="27.5" cy="27.5" r="27.5" fill="white"/>
<g clip-path="url(#clip0_596_1502)">
<path d="M35.8333 26.8057H34.4444C34.4444 28.0557 34.0972 29.2362 33.4722 30.2779L34.5138 31.3196C35.3472 29.9307 35.7638 28.4029 35.8333 26.8057Z" fill="#FF2929"/>
<path d="M32.3609 26.8056V21.2501C32.3609 18.5418 30.1387 16.389 27.4304 16.4584C25.4165 16.4584 23.5415 17.7779 22.9165 19.7223L31.9443 28.7501C32.2221 28.1251 32.3609 27.4306 32.3609 26.8056Z" fill="#FF2929"/>
<path d="M32.5001 33.4723L37.2918 38.264L38.264 37.2918L17.7779 16.8057L16.8057 17.7779L22.639 23.6112V26.8057C22.639 29.514 24.7918 31.6668 27.5001 31.6668C28.4029 31.6668 29.2362 31.4584 30.0001 30.9723L31.5279 32.5001C30.3473 33.3334 28.9584 33.7501 27.5001 33.7501C23.7501 33.889 20.6946 30.9029 20.5557 27.2223V26.8057H19.1668C19.2362 31.1112 22.5001 34.7223 26.8057 35.139V37.2223H24.7223C24.3057 37.2223 24.0279 37.5001 24.0279 37.9168C24.0279 38.3334 24.3057 38.6112 24.7223 38.6112H30.2779C30.6946 38.6112 30.9723 38.3334 30.9723 37.9168C30.9723 37.5001 30.6946 37.2223 30.2779 37.2223H28.1946V35.139C29.7223 35.0001 31.2501 34.4446 32.5001 33.4723Z" fill="#FF2929"/>
</g>
<defs>
<clipPath id="clip0_596_1502">
<rect width="25" height="25" fill="white" transform="translate(15 15)"/>
</clipPath>
</defs>
</svg>
