<svg width="55" height="55" viewBox="0 0 55 55" fill="none" xmlns="http://www.w3.org/2000/svg">
<circle cx="27.5" cy="27.5" r="27.5" fill="white"/>
<mask id="mask0_2001_1408" style="mask-type:luminance" maskUnits="userSpaceOnUse" x="17" y="15" width="22" height="22">
<path d="M37 29V26.231C37 21.1325 32.9705 17 28 17C23.0295 17 19 21.1325 19 26.231V29" stroke="white" stroke-width="4" stroke-linecap="round" stroke-linejoin="round"/>
<path d="M33 30C33 29.4696 33.2107 28.9609 33.5858 28.5858C33.9609 28.2107 34.4696 28 35 28H37V35H35C34.4696 35 33.9609 34.7893 33.5858 34.4142C33.2107 34.0391 33 33.5304 33 33V30Z" fill="white" stroke="white" stroke-width="4" stroke-linejoin="round"/>
<path d="M37 30H38C38.2652 30 38.5196 30.1054 38.7071 30.2929C38.8946 30.4804 39 30.7348 39 31V32C39 32.2652 38.8946 32.5196 38.7071 32.7071C38.5196 32.8946 38.2652 33 38 33H37V30ZM19 30H18C17.7348 30 17.4804 30.1054 17.2929 30.2929C17.1054 30.4804 17 30.7348 17 31V32C17 32.2652 17.1054 32.5196 17.2929 32.7071C17.4804 32.8946 17.7348 33 18 33H19V30Z" fill="white"/>
<path d="M19 28H21C21.5304 28 22.0391 28.2107 22.4142 28.5858C22.7893 28.9609 23 29.4696 23 30V33C23 33.5304 22.7893 34.0391 22.4142 34.4142C22.0391 34.7893 21.5304 35 21 35H19V28Z" fill="white" stroke="white" stroke-width="4" stroke-linejoin="round"/>
</mask>
<g mask="url(#mask0_2001_1408)">
<path d="M16 14H40V38H16V14Z" fill="#C4C4C4"/>
</g>
<path d="M28.8604 28.3199H27.8604V22.3199L25.1104 25.0699L24.4004 24.3599L28.3604 20.3999L32.3204 24.3599L31.6104 25.0699L28.8604 22.3199V28.3199Z" fill="#66EB6E"/>
</svg>
