<svg width="689" height="98" viewBox="0 0 689 98" fill="none" xmlns="http://www.w3.org/2000/svg">
<path d="M67.4966 49.4683L63.3833 42.6699V0.394531H67.4966V49.4683ZM75.7231 62.9507L71.6099 56.0381V0.394531H75.7231V62.9507ZM83.9497 76.6045L79.8364 69.6348V0.394531H83.9497V76.6045ZM24.9927 45.9263L29.106 52.7246V95H24.9927V45.9263ZM16.7661 32.4438L20.8794 39.3564V95H16.7661V32.4438ZM8.53955 18.79L12.6528 25.7598V95H8.53955V18.79ZM9.96777 0.394531H14.7666L72.9238 95H68.125L9.96777 0.394531ZM19.6797 0.394531H24.5356L82.6357 95H77.7227L19.6797 0.394531ZM29.3345 0.394531H34.1333L88.063 88.3159V0.394531H92.1763V95C92.1763 95 90.5576 95 87.3203 95L29.3345 0.394531ZM4.42627 7.07861V95H0.312988V0.394531C0.312988 0.394531 1.95068 0.394531 5.22607 0.394531L63.2119 95H58.4702L4.42627 7.07861ZM161.257 54.4385C161.257 49.5635 159.752 45.793 156.743 43.127C153.735 40.4609 149.755 39.1279 144.803 39.1279C140.614 39.1279 137.015 40.5752 134.006 43.4697C130.997 46.3643 129.493 49.8301 129.493 53.8672C129.493 56.1523 129.798 58.209 130.407 60.0371C131.016 61.8271 131.835 63.3315 132.863 64.5503C133.93 65.731 135.187 66.7212 136.634 67.521C138.081 68.2827 139.586 68.835 141.147 69.1777C142.747 69.5205 144.442 69.6919 146.232 69.6919C150.573 69.6919 154.534 68.6255 158.114 66.4927V70.606C154.42 72.5483 150.44 73.5195 146.174 73.5195C143.432 73.5195 140.842 73.1577 138.405 72.4341C136.006 71.6724 133.816 70.5488 131.835 69.0635C129.855 67.54 128.274 65.4834 127.093 62.8936C125.951 60.2656 125.38 57.2568 125.38 53.8672C125.38 48.6113 127.227 44.1553 130.921 40.499C134.615 36.8428 139.243 35.0146 144.803 35.0146C150.935 35.0146 155.886 36.7476 159.657 40.2134C163.465 43.6411 165.37 48.3828 165.37 54.4385V95H161.257V54.4385ZM173.596 54.4385V95H169.483V54.4385C169.483 47.2402 167.179 41.5273 162.57 37.2998C157.962 33.0342 152.04 30.9014 144.803 30.9014C138.1 30.9014 132.502 33.1294 128.007 37.5854C123.513 42.0415 121.266 47.4688 121.266 53.8672C121.266 57.752 121.933 61.2368 123.266 64.3218C124.637 67.4067 126.484 69.8823 128.807 71.7485C131.131 73.6147 133.72 75.043 136.577 76.0332C139.471 76.9854 142.518 77.4614 145.717 77.4614C150.059 77.4614 154.192 76.4521 158.114 74.4336V78.7754C154.001 80.4893 149.85 81.3462 145.66 81.3462C141.89 81.3462 138.31 80.7749 134.92 79.6323C131.53 78.4517 128.503 76.7568 125.837 74.5479C123.171 72.3008 121.057 69.4062 119.495 65.8643C117.934 62.2842 117.153 58.2852 117.153 53.8672C117.153 46.3643 119.8 39.9849 125.094 34.729C130.426 29.4351 136.996 26.7881 144.803 26.7881C150.288 26.7881 155.201 27.9116 159.543 30.1587C163.884 32.3677 167.312 35.5859 169.826 39.8135C172.34 44.041 173.596 48.916 173.596 54.4385ZM181.823 54.4385V95H177.71V54.4385C177.71 48.1543 176.262 42.5938 173.368 37.7568C170.511 32.8818 166.589 29.1494 161.599 26.5596C156.61 23.9697 151.011 22.6748 144.803 22.6748C138.9 22.6748 133.511 24.084 128.636 26.9023C123.761 29.6826 119.933 33.4531 117.153 38.2139C114.411 42.9746 113.04 48.1924 113.04 53.8672C113.04 58.7422 113.935 63.1982 115.725 67.2354C117.515 71.2344 119.914 74.5288 122.923 77.1187C125.97 79.7085 129.417 81.7271 133.263 83.1743C137.148 84.5835 141.204 85.2881 145.432 85.2881C149.736 85.2881 153.963 84.3931 158.114 82.603V86.7734C153.773 88.4111 149.507 89.23 145.318 89.23C138.729 89.23 132.673 87.7446 127.151 84.7739C121.628 81.8032 117.21 77.5947 113.897 72.1484C110.583 66.7021 108.926 60.6084 108.926 53.8672C108.926 49.0684 109.84 44.498 111.669 40.1562C113.535 35.8145 116.048 32.063 119.21 28.9019C122.371 25.7407 126.179 23.2271 130.635 21.3608C135.091 19.4946 139.814 18.5615 144.803 18.5615C151.773 18.5615 158.057 20.0469 163.656 23.0176C169.293 25.9883 173.73 30.2158 176.967 35.7002C180.204 41.1846 181.823 47.4307 181.823 54.4385ZM190.049 54.4385V95H185.936V54.4385C185.936 46.6689 184.127 39.7373 180.509 33.6436C176.891 27.5117 171.959 22.7891 165.713 19.4756C159.466 16.124 152.497 14.4482 144.803 14.4482C137.415 14.4482 130.654 16.2192 124.523 19.7612C118.391 23.3032 113.573 28.1021 110.069 34.1577C106.565 40.1753 104.813 46.7451 104.813 53.8672C104.813 58.5518 105.556 63.0078 107.041 67.2354C108.565 71.4248 110.621 75.1001 113.211 78.2612C115.839 81.3843 118.848 84.0884 122.237 86.3735C125.665 88.6587 129.34 90.3916 133.263 91.5723C137.224 92.7529 141.242 93.3433 145.318 93.3433C149.812 93.3433 154.077 92.4863 158.114 90.7725V95C153.887 96.4854 149.545 97.228 145.089 97.228C140.481 97.228 135.986 96.5806 131.607 95.2856C127.265 93.9907 123.228 92.0864 119.495 89.5728C115.801 87.021 112.545 84.0312 109.726 80.6035C106.908 77.1377 104.699 73.1006 103.099 68.4922C101.5 63.8838 100.7 59.0088 100.7 53.8672C100.7 47.9639 101.804 42.3462 104.013 37.0142C106.26 31.644 109.307 27.0166 113.154 23.1318C117.039 19.209 121.723 16.105 127.208 13.8198C132.73 11.4966 138.595 10.335 144.803 10.335C151.126 10.335 157.067 11.4014 162.628 13.5342C168.188 15.667 172.987 18.6377 177.024 22.4463C181.061 26.2168 184.241 30.8633 186.565 36.3857C188.888 41.9082 190.049 47.9258 190.049 54.4385ZM196.802 12.7344H201.258L231.594 89.4585L261.929 12.7344H266.328L233.822 95H229.366L196.802 12.7344ZM205.657 12.7344H210.056L234.45 74.4336L232.108 79.6895L205.657 12.7344ZM214.512 12.7344H218.968L238.849 63.1792L236.678 68.835L214.512 12.7344ZM223.367 12.7344H227.766L243.191 51.7534L241.02 57.5234L223.367 12.7344ZM288.437 12.7344H292.893L260.329 95H255.93L288.437 12.7344ZM279.639 12.7344H284.038L251.474 95H247.076L279.639 12.7344ZM270.727 12.7344H275.183L242.619 95H238.221L270.727 12.7344ZM324.668 12.7344H328.781V95H324.668V12.7344ZM316.441 12.7344H320.555V95H316.441V12.7344ZM308.215 12.7344H312.328V95H308.215V12.7344ZM299.988 12.7344H304.102V95H299.988V12.7344ZM371.297 56.2666H388.721C392.149 56.2666 395.062 55.2383 397.462 53.1816C399.861 51.125 401.061 48.2305 401.061 44.498C401.061 41.6035 399.804 39.0137 397.29 36.7285C394.776 34.4434 391.92 33.3008 388.721 33.3008H359.928V95H355.815V29.1875H388.721C393.101 29.1875 396.928 30.73 400.204 33.8149C403.517 36.8999 405.174 40.4609 405.174 44.498C405.174 49.335 403.574 53.2007 400.375 56.0952C397.176 58.9517 393.291 60.3799 388.721 60.3799H371.297V56.2666ZM371.297 64.4932H388.721C394.358 64.4932 399.194 62.627 403.232 58.8945C407.269 55.1621 409.287 50.3633 409.287 44.498C409.287 39.3564 407.231 34.8433 403.117 30.9585C399.004 27.0356 394.205 25.0742 388.721 25.0742H351.701V95H347.588V20.9609H388.721C395.348 20.9609 401.118 23.3223 406.031 28.0449C410.944 32.7295 413.401 38.2139 413.401 44.498C413.401 51.3535 410.963 57.0854 406.088 61.6938C401.251 66.3022 395.462 68.6064 388.721 68.6064H371.297V64.4932ZM371.297 72.7197H388.721C393.862 72.7197 398.623 71.501 403.003 69.0635C407.421 66.626 410.944 63.2363 413.572 58.8945C416.2 54.5527 417.514 49.7539 417.514 44.498C417.514 39.6611 416.2 35.1099 413.572 30.8442C410.982 26.5786 407.459 23.189 403.003 20.6753C398.585 18.1235 393.824 16.8477 388.721 16.8477H343.475V95H339.361V12.7344H388.721C393.063 12.7344 397.252 13.5913 401.289 15.3052C405.364 17.019 408.887 19.3232 411.858 22.2178C414.829 25.0742 417.19 28.4639 418.942 32.3867C420.732 36.2715 421.627 40.3086 421.627 44.498C421.627 49.4111 420.751 53.9243 418.999 58.0376C417.247 62.1509 414.867 65.5786 411.858 68.3208C408.849 71.0249 405.345 73.1196 401.346 74.605C397.385 76.0903 393.177 76.833 388.721 76.833H371.297V72.7197ZM368.154 95H364.041V37.4141H388.721C390.968 37.4141 392.891 38.1187 394.491 39.5278C396.129 40.8989 396.947 42.5557 396.947 44.498C396.947 49.6016 394.205 52.1533 388.721 52.1533H371.297V48.04H388.721C391.463 48.04 392.834 46.8594 392.834 44.498C392.834 43.6602 392.434 42.9556 391.634 42.3843C390.835 41.813 389.863 41.5273 388.721 41.5273H368.154V95ZM461.8 55.6953H486.594C489.869 55.6953 492.65 54.667 494.935 52.6104C497.22 50.5537 498.363 47.6592 498.363 43.9268C498.363 41.1846 497.163 38.728 494.763 36.5571C492.402 34.3862 489.679 33.3008 486.594 33.3008H451.288V95H447.175V29.1875H486.594C490.822 29.1875 494.516 30.6729 497.677 33.6436C500.876 36.6143 502.476 40.042 502.476 43.9268C502.476 48.7637 500.933 52.6294 497.848 55.5239C494.763 58.3804 491.012 59.8086 486.594 59.8086H461.8V55.6953ZM461.8 63.9219H486.594C492.078 63.9219 496.782 62.0557 500.705 58.3232C504.628 54.5908 506.589 49.792 506.589 43.9268C506.589 38.9375 504.59 34.5576 500.591 30.7871C496.592 26.9785 491.926 25.0742 486.594 25.0742H443.062V95H438.949V20.9609H486.594C493.069 20.9609 498.705 23.2651 503.504 27.8735C508.303 32.4438 510.702 37.7949 510.702 43.9268C510.702 50.7822 508.322 56.5142 503.561 61.1226C498.839 65.731 493.183 68.0352 486.594 68.0352H461.8V63.9219ZM461.8 72.1484H486.594C491.659 72.1484 496.344 70.9297 500.648 68.4922C504.951 66.0547 508.379 62.665 510.931 58.3232C513.521 53.9814 514.816 49.1826 514.816 43.9268C514.816 39.166 513.54 34.71 510.988 30.5586C508.436 26.3691 504.971 23.0366 500.591 20.561C496.249 18.0854 491.583 16.8477 486.594 16.8477H434.835V95H430.722V12.7344H486.594C490.898 12.7344 495.03 13.5913 498.991 15.3052C502.99 16.981 506.437 19.228 509.331 22.0464C512.226 24.8267 514.549 28.1401 516.301 31.9868C518.053 35.8335 518.929 39.8135 518.929 43.9268C518.929 50.5918 517.406 56.4189 514.359 61.4082C511.312 66.3594 507.218 70.1299 502.076 72.7197L510.702 95H506.304L498.134 74.3765C497.106 74.7192 495.906 75.062 494.535 75.4048L502.247 95H497.848L490.307 76.0903C489.127 76.2046 487.889 76.2617 486.594 76.2617L493.849 95H489.508L482.309 76.2617H478.596L485.509 95H481.167L474.197 76.2617H461.8V72.1484ZM459.515 95H455.402V37.4141H486.594C488.727 37.4141 490.536 38.0615 492.021 39.3564C493.507 40.6133 494.249 42.1367 494.249 43.9268C494.249 49.0303 491.698 51.582 486.594 51.582H461.8V47.4688H486.594C488.955 47.4688 490.136 46.2881 490.136 43.9268C490.136 43.2793 489.774 42.7271 489.051 42.27C488.365 41.7749 487.546 41.5273 486.594 41.5273H459.515V95ZM548.476 95H544.363V12.7344H548.476V95ZM540.249 95H536.136V12.7344H540.249V95ZM532.023 95H527.91V12.7344H532.023V95ZM556.703 74.4336H596.064V78.5469H556.703V82.6602H596.064V86.7734H556.703V90.8867H596.064V95H552.589V12.7344H596.064V16.8477H556.703V20.9609H596.064V25.0742H556.703V29.1875H596.064V33.3008H556.703V43.5269H593.779V47.6401H556.703V51.7534H593.779V55.8667H556.703V59.98H593.779V64.0933H556.703V74.4336ZM637.723 56.2666H655.147C658.575 56.2666 661.488 55.2383 663.888 53.1816C666.287 51.125 667.487 48.2305 667.487 44.498C667.487 41.6035 666.23 39.0137 663.716 36.7285C661.203 34.4434 658.346 33.3008 655.147 33.3008H626.354V95H622.241V29.1875H655.147C659.527 29.1875 663.355 30.73 666.63 33.8149C669.943 36.8999 671.6 40.4609 671.6 44.498C671.6 49.335 670.001 53.2007 666.801 56.0952C663.602 58.9517 659.717 60.3799 655.147 60.3799H637.723V56.2666ZM637.723 64.4932H655.147C660.784 64.4932 665.621 62.627 669.658 58.8945C673.695 55.1621 675.714 50.3633 675.714 44.498C675.714 39.3564 673.657 34.8433 669.544 30.9585C665.43 27.0356 660.631 25.0742 655.147 25.0742H618.128V95H614.014V20.9609H655.147C661.774 20.9609 667.544 23.3223 672.457 28.0449C677.37 32.7295 679.827 38.2139 679.827 44.498C679.827 51.3535 677.389 57.0854 672.514 61.6938C667.677 66.3022 661.888 68.6064 655.147 68.6064H637.723V64.4932ZM637.723 72.7197H655.147C660.289 72.7197 665.049 71.501 669.429 69.0635C673.847 66.626 677.37 63.2363 679.998 58.8945C682.626 54.5527 683.94 49.7539 683.94 44.498C683.94 39.6611 682.626 35.1099 679.998 30.8442C677.408 26.5786 673.885 23.189 669.429 20.6753C665.011 18.1235 660.251 16.8477 655.147 16.8477H609.901V95H605.788V12.7344H655.147C659.489 12.7344 663.678 13.5913 667.715 15.3052C671.791 17.019 675.314 19.3232 678.284 22.2178C681.255 25.0742 683.616 28.4639 685.368 32.3867C687.158 36.2715 688.053 40.3086 688.053 44.498C688.053 49.4111 687.177 53.9243 685.425 58.0376C683.673 62.1509 681.293 65.5786 678.284 68.3208C675.276 71.0249 671.772 73.1196 667.773 74.605C663.812 76.0903 659.603 76.833 655.147 76.833H637.723V72.7197ZM634.581 95H630.467V37.4141H655.147C657.394 37.4141 659.318 38.1187 660.917 39.5278C662.555 40.8989 663.374 42.5557 663.374 44.498C663.374 49.6016 660.631 52.1533 655.147 52.1533H637.723V48.04H655.147C657.889 48.04 659.26 46.8594 659.26 44.498C659.26 43.6602 658.86 42.9556 658.061 42.3843C657.261 41.813 656.29 41.5273 655.147 41.5273H634.581V95Z" fill="#7D54DF"/>
</svg>
