<svg width="25" height="26" viewBox="0 0 25 26" fill="none" xmlns="http://www.w3.org/2000/svg">
<g opacity="0.65">
<path d="M18.7875 20.9849C18.8335 21.0396 18.863 21.1063 18.8723 21.1772C18.8817 21.248 18.8707 21.3201 18.8405 21.3848C18.8103 21.4496 18.7622 21.5044 18.7019 21.5427C18.6416 21.5811 18.5717 21.6015 18.5002 21.6014H2.74991C2.74988 21.6014 2.74994 21.6014 2.74991 21.6014C2.67853 21.6013 2.60854 21.5809 2.54836 21.5426C2.48815 21.5042 2.44015 21.4494 2.41002 21.3846C2.37988 21.3199 2.36887 21.2479 2.37826 21.1771C2.38765 21.1063 2.41706 21.0396 2.46304 20.985C3.82076 19.3692 5.50466 18.2263 7.37118 17.6153L8.13472 17.3653L7.45276 16.9406C6.34621 16.2514 5.49422 15.2205 5.02571 14.004C4.55719 12.7875 4.49763 11.4514 4.85604 10.1981C5.21446 8.94467 5.97134 7.8421 7.01218 7.05717C8.05302 6.27224 9.32119 5.84766 10.6248 5.84766C11.9285 5.84766 13.1966 6.27224 14.2375 7.05717C15.2783 7.8421 16.0352 8.94466 16.3936 10.1981C16.752 11.4514 16.6925 12.7875 16.2239 14.004C15.7554 15.2205 14.9034 16.2514 13.7969 16.9406L13.1149 17.3653L13.8785 17.6153C15.745 18.2263 17.4288 19.369 18.7875 20.9849ZM19.0745 20.7436C19.1665 20.8529 19.2253 20.9863 19.2441 21.128C19.2629 21.2697 19.2407 21.4137 19.1804 21.5433C19.12 21.6728 19.0238 21.7824 18.9033 21.8591C18.7827 21.9358 18.6427 21.9765 18.4998 21.9764L19.0745 20.7436ZM19.1025 7.82668C19.1939 7.78759 19.2975 7.78628 19.3898 7.82329C19.4819 7.8602 19.5555 7.93206 19.5947 8.02314C20.1095 9.23381 20.3748 10.5358 20.3748 11.8514C20.3748 13.1669 20.1095 14.469 19.5947 15.6796C19.5555 15.7709 19.4818 15.8429 19.3896 15.8799C19.2972 15.917 19.1939 15.9158 19.1023 15.8767C19.0108 15.8376 18.9385 15.7637 18.9015 15.6713C18.8644 15.5789 18.8655 15.4756 18.9047 15.384C19.3798 14.267 19.6248 13.0652 19.6248 11.8514C19.6248 10.6376 19.38 9.43629 18.9049 8.31933C18.8856 8.27402 18.8751 8.22489 18.8746 8.17563C18.8741 8.12637 18.8833 8.0775 18.9016 8.03179C18.92 7.98608 18.9472 7.94444 18.9817 7.90925C19.0161 7.87406 19.0572 7.846 19.1025 7.82668ZM22.3425 6.81865L22.3466 6.82846C23.0251 8.41614 23.3749 10.1248 23.3749 11.8514C23.3749 13.578 23.0251 15.2866 22.3466 16.8743L22.3425 16.8841C22.3241 16.9308 22.2965 16.9733 22.2614 17.0091C22.2263 17.045 22.1843 17.0734 22.138 17.0927C22.0917 17.112 22.042 17.1218 21.9918 17.1216C21.9417 17.1213 21.8921 17.111 21.8459 17.0913C21.7998 17.0715 21.7582 17.0427 21.7234 17.0065C21.6886 16.9704 21.6614 16.9276 21.6435 16.8807C21.6255 16.8339 21.6172 16.7839 21.6189 16.7338C21.6206 16.6836 21.6324 16.6343 21.6535 16.5888L21.6582 16.5783C22.296 15.084 22.6248 13.4761 22.6248 11.8514C22.6248 10.2267 22.296 8.61878 21.6582 7.1245L21.6535 7.11396C21.6324 7.06845 21.6206 7.01916 21.6189 6.96902C21.6172 6.91887 21.6255 6.8689 21.6435 6.82205C21.6614 6.7752 21.6886 6.73243 21.7234 6.69626C21.7582 6.6601 21.7998 6.63129 21.8459 6.61152C21.8921 6.59176 21.9417 6.58145 21.9918 6.58121C22.042 6.58096 22.0917 6.59079 22.138 6.6101C22.1843 6.62942 22.2263 6.65783 22.2614 6.69365C22.2965 6.72947 22.3241 6.77198 22.3425 6.81865Z" fill="#6B5EE0"/>
<path d="M2.74991 21.6014H18.5002C18.5717 21.6015 18.6416 21.5811 18.7019 21.5427C18.7622 21.5044 18.8103 21.4496 18.8405 21.3848C18.8707 21.3201 18.8817 21.248 18.8723 21.1772C18.863 21.1063 18.8335 21.0396 18.7875 20.9849C17.4288 19.369 15.745 18.2263 13.8785 17.6153L13.1149 17.3653L13.7969 16.9406C14.9034 16.2514 15.7554 15.2205 16.2239 14.004C16.6925 12.7875 16.752 11.4514 16.3936 10.1981C16.0352 8.94466 15.2783 7.8421 14.2375 7.05717C13.1966 6.27224 11.9285 5.84766 10.6248 5.84766C9.32119 5.84766 8.05302 6.27224 7.01218 7.05717C5.97134 7.8421 5.21446 8.94467 4.85604 10.1981C4.49763 11.4514 4.55719 12.7875 5.02571 14.004C5.49422 15.2205 6.34621 16.2514 7.45276 16.9406L8.13472 17.3653L7.37118 17.6153C5.50466 18.2263 3.82076 19.3692 2.46304 20.985C2.41706 21.0396 2.38765 21.1063 2.37826 21.1771C2.36887 21.2479 2.37988 21.3199 2.41002 21.3846C2.44015 21.4494 2.48815 21.5042 2.54836 21.5426C2.60854 21.5809 2.67853 21.6013 2.74991 21.6014ZM2.74991 21.6014C2.74988 21.6014 2.74994 21.6014 2.74991 21.6014ZM19.0745 20.7436C19.1665 20.8529 19.2253 20.9863 19.2441 21.128C19.2629 21.2697 19.2407 21.4137 19.1804 21.5433C19.12 21.6728 19.0238 21.7824 18.9033 21.8591C18.7827 21.9358 18.6427 21.9765 18.4998 21.9764L19.0745 20.7436ZM19.1025 7.82668C19.1939 7.78759 19.2975 7.78628 19.3898 7.82329C19.4819 7.8602 19.5555 7.93206 19.5947 8.02314C20.1095 9.23381 20.3748 10.5358 20.3748 11.8514C20.3748 13.1669 20.1095 14.469 19.5947 15.6796C19.5555 15.7709 19.4818 15.8429 19.3896 15.8799C19.2972 15.917 19.1939 15.9158 19.1023 15.8767C19.0108 15.8376 18.9385 15.7637 18.9015 15.6713C18.8644 15.5789 18.8655 15.4756 18.9047 15.384C19.3798 14.267 19.6248 13.0652 19.6248 11.8514C19.6248 10.6376 19.38 9.43629 18.9049 8.31933C18.8856 8.27402 18.8751 8.22489 18.8746 8.17563C18.8741 8.12637 18.8833 8.0775 18.9016 8.03179C18.92 7.98608 18.9472 7.94444 18.9817 7.90925C19.0161 7.87406 19.0572 7.846 19.1025 7.82668ZM22.3425 6.81865L22.3466 6.82846C23.0251 8.41614 23.3749 10.1248 23.3749 11.8514C23.3749 13.578 23.0251 15.2866 22.3466 16.8743L22.3425 16.8841C22.3241 16.9308 22.2965 16.9733 22.2614 17.0091C22.2263 17.045 22.1843 17.0734 22.138 17.0927C22.0917 17.112 22.042 17.1218 21.9918 17.1216C21.9417 17.1213 21.8921 17.111 21.8459 17.0913C21.7998 17.0715 21.7582 17.0427 21.7234 17.0065C21.6886 16.9704 21.6614 16.9276 21.6435 16.8807C21.6255 16.8339 21.6172 16.7839 21.6189 16.7338C21.6206 16.6836 21.6324 16.6343 21.6535 16.5888L21.6582 16.5783C22.296 15.084 22.6248 13.4761 22.6248 11.8514C22.6248 10.2267 22.296 8.61878 21.6582 7.1245L21.6535 7.11396C21.6324 7.06845 21.6206 7.01916 21.6189 6.96902C21.6172 6.91887 21.6255 6.8689 21.6435 6.82205C21.6614 6.7752 21.6886 6.73243 21.7234 6.69626C21.7582 6.6601 21.7998 6.63129 21.8459 6.61152C21.8921 6.59176 21.9417 6.58145 21.9918 6.58121C22.042 6.58096 22.0917 6.59079 22.138 6.6101C22.1843 6.62942 22.2263 6.65783 22.2614 6.69365C22.2965 6.72947 22.3241 6.77198 22.3425 6.81865Z" stroke="#5546DD" stroke-width="0.75"/>
</g>
</svg>
