<svg width="21" height="20" viewBox="0 0 21 20" fill="none" xmlns="http://www.w3.org/2000/svg">
<g opacity="0.65">
<path d="M12.38 11.9668C12.6597 11.8732 12.9657 11.893 13.2308 12.0223C13.496 12.1516 13.6997 12.3799 13.7981 12.6579C13.8966 12.936 13.8819 13.2416 13.7573 13.5089C13.6326 13.7762 13.4079 13.9839 13.1316 14.0872L13.1254 14.0895C12.786 14.2096 12.4227 14.2464 12.066 14.197C11.7094 14.1475 11.3699 14.0132 11.0759 13.8054C10.7819 13.5975 10.5422 13.3221 10.3767 13.0023C10.2112 12.6826 10.1249 12.3278 10.125 11.9678H10.5L12.38 11.9668ZM12.38 11.9668C12.3784 11.9673 12.3767 11.9677 12.375 11.9678L12.38 11.9668ZM9 14.218C9 12.9322 8.24765 11.9734 7.60816 11.1586L7.59113 11.1369C7.59104 11.1368 7.59122 11.137 7.59113 11.1369C6.91154 10.2671 6.375 9.55955 6.375 8.59275C6.375 7.49875 6.8096 6.44955 7.58319 5.67596C8.35678 4.90237 9.406 4.46777 10.5 4.46777C11.594 4.46777 12.6432 4.90237 13.4168 5.67596C14.1904 6.44955 14.625 7.49875 14.625 8.59275C14.625 8.89115 14.7435 9.17725 14.9545 9.38825C15.1655 9.59925 15.4516 9.71775 15.75 9.71775C16.0484 9.71775 16.3345 9.59925 16.5455 9.38825C16.7565 9.17725 16.875 8.89115 16.875 8.59275C16.875 6.90202 16.2034 5.28051 15.0078 4.08497C13.8123 2.88942 12.1908 2.21777 10.5 2.21777C8.8092 2.21777 7.18774 2.88942 5.9922 4.08497C4.79665 5.28051 4.125 6.90202 4.125 8.59275C4.125 10.3549 5.08905 11.5891 5.80054 12.4999L5.81791 12.5221C6.09349 12.8747 6.32935 13.1777 6.49922 13.4677C6.66779 13.7554 6.75 13.9959 6.75 14.2178C6.75019 14.9561 6.96829 15.678 7.37698 16.2928C7.78567 16.9077 8.36675 17.3882 9.0474 17.6742C9.728 17.9602 10.478 18.0389 11.2031 17.9005C11.9262 17.7625 12.5926 17.4147 13.1193 16.9006C13.2287 16.7999 13.3171 16.6784 13.3793 16.5432C13.4426 16.4058 13.4774 16.257 13.4819 16.1057C13.4863 15.9544 13.4601 15.8038 13.405 15.6629C13.3498 15.522 13.2668 15.3937 13.1609 15.2856C13.055 15.1775 12.9283 15.0919 12.7886 15.0339C12.6488 14.9759 12.4988 14.9466 12.3475 14.948C12.1961 14.9493 12.0466 14.9812 11.9079 15.0416C11.7717 15.101 11.6486 15.1867 11.5457 15.2939C11.3354 15.4984 11.0697 15.6368 10.7815 15.6919C10.4913 15.7473 10.1912 15.7158 9.9188 15.6013C9.6464 15.4868 9.414 15.2945 9.2505 15.0484C9.087 14.8023 8.9999 14.5134 9 14.218ZM5.29153 2.29775C6.83319 1.26764 8.6457 0.717813 10.4998 0.717773C12.9854 0.720453 15.3685 1.70905 17.1261 3.46666C18.8838 5.22432 19.8724 7.60745 19.875 10.0932C19.8749 11.9473 19.3251 13.7597 18.295 15.3013C17.2649 16.843 15.8007 18.0446 14.0877 18.7542C12.3746 19.4638 10.4896 19.6494 8.671 19.2877C6.85246 18.9259 5.182 18.0331 3.87088 16.7219C2.55976 15.4108 1.66688 13.7404 1.30514 11.9218C0.943409 10.1032 1.12906 8.21815 1.83863 6.50512C2.54821 4.79206 3.74982 3.32788 5.29153 2.29775Z" fill="#6B5EE0"/>
<path d="M12.38 11.9668C12.6597 11.8732 12.9657 11.893 13.2308 12.0223C13.496 12.1516 13.6997 12.3799 13.7981 12.6579C13.8966 12.936 13.8819 13.2416 13.7573 13.5089C13.6326 13.7762 13.4079 13.9839 13.1316 14.0872L13.1254 14.0895C12.786 14.2096 12.4227 14.2464 12.066 14.197C11.7094 14.1475 11.3699 14.0132 11.0759 13.8054C10.7819 13.5975 10.5422 13.3221 10.3767 13.0023C10.2112 12.6826 10.1249 12.3278 10.125 11.9678H10.5L12.38 11.9668ZM12.38 11.9668C12.3784 11.9673 12.3767 11.9677 12.375 11.9678L12.38 11.9668ZM7.59113 11.1369L7.60816 11.1586C8.24765 11.9734 9 12.9322 9 14.218C8.9999 14.5134 9.087 14.8023 9.2505 15.0484C9.414 15.2945 9.6464 15.4868 9.9188 15.6013C10.1912 15.7158 10.4913 15.7473 10.7815 15.6919C11.0697 15.6368 11.3354 15.4984 11.5457 15.2939C11.6486 15.1867 11.7717 15.101 11.9079 15.0416C12.0466 14.9812 12.1961 14.9493 12.3475 14.948C12.4988 14.9466 12.6488 14.9759 12.7886 15.0339C12.9283 15.0919 13.055 15.1775 13.1609 15.2856C13.2668 15.3937 13.3498 15.522 13.405 15.6629C13.4601 15.8038 13.4863 15.9544 13.4819 16.1057C13.4774 16.257 13.4426 16.4058 13.3793 16.5432C13.3171 16.6784 13.2287 16.7999 13.1193 16.9006C12.5926 17.4147 11.9262 17.7625 11.2031 17.9005C10.478 18.0389 9.728 17.9602 9.0474 17.6742C8.36675 17.3882 7.78567 16.9077 7.37698 16.2928C6.96829 15.678 6.75019 14.9561 6.75 14.2178C6.75 13.9959 6.66779 13.7554 6.49922 13.4677C6.32935 13.1777 6.09349 12.8747 5.81791 12.5221L5.80054 12.4999C5.08905 11.5891 4.125 10.3549 4.125 8.59275C4.125 6.90202 4.79665 5.28051 5.9922 4.08497C7.18774 2.88942 8.8092 2.21777 10.5 2.21777C12.1908 2.21777 13.8123 2.88942 15.0078 4.08497C16.2034 5.28051 16.875 6.90202 16.875 8.59275C16.875 8.89115 16.7565 9.17725 16.5455 9.38825C16.3345 9.59925 16.0484 9.71775 15.75 9.71775C15.4516 9.71775 15.1655 9.59925 14.9545 9.38825C14.7435 9.17725 14.625 8.89115 14.625 8.59275C14.625 7.49875 14.1904 6.44955 13.4168 5.67596C12.6432 4.90237 11.594 4.46777 10.5 4.46777C9.406 4.46777 8.35678 4.90237 7.58319 5.67596C6.8096 6.44955 6.375 7.49875 6.375 8.59275C6.375 9.55955 6.91154 10.2671 7.59113 11.1369ZM7.59113 11.1369C7.59104 11.1368 7.59122 11.137 7.59113 11.1369ZM5.29153 2.29775C6.83319 1.26764 8.6457 0.717813 10.4998 0.717773C12.9854 0.720453 15.3685 1.70905 17.1261 3.46666C18.8838 5.22432 19.8724 7.60745 19.875 10.0932C19.8749 11.9473 19.3251 13.7597 18.295 15.3013C17.2649 16.843 15.8007 18.0446 14.0877 18.7542C12.3746 19.4638 10.4896 19.6494 8.671 19.2877C6.85246 18.9259 5.182 18.0331 3.87088 16.7219C2.55976 15.4108 1.66688 13.7404 1.30514 11.9218C0.943409 10.1032 1.12906 8.21815 1.83863 6.50512C2.54821 4.79206 3.74982 3.32788 5.29153 2.29775Z" stroke="#5546DD" stroke-width="0.75"/>
</g>
</svg>
