<svg width="25" height="26" viewBox="0 0 25 26" fill="none" xmlns="http://www.w3.org/2000/svg">
<g opacity="0.65">
<mask id="mask0_42_2549" style="mask-type:luminance" maskUnits="userSpaceOnUse" x="3" y="4" width="19" height="19">
<g opacity="0.65">
<path d="M21.5 5.0459V8.4209C21.5 8.61982 21.421 8.81058 21.2803 8.95123C21.1397 9.09189 20.9489 9.1709 20.75 9.1709C20.5511 9.1709 20.3603 9.09189 20.2197 8.95123C20.079 8.81058 20 8.61982 20 8.4209V5.7959H17.375C17.1761 5.7959 16.9853 5.71689 16.8447 5.57623C16.704 5.43558 16.625 5.24482 16.625 5.0459C16.625 4.84699 16.704 4.65623 16.8447 4.51557C16.9853 4.37492 17.1761 4.2959 17.375 4.2959H20.75C20.9489 4.2959 21.1397 4.37492 21.2803 4.51557C21.421 4.65623 21.5 4.84699 21.5 5.0459ZM20.75 17.4209C20.5511 17.4209 20.3603 17.4999 20.2197 17.6406C20.079 17.7812 20 17.972 20 18.1709V20.7959H17.375C17.1761 20.7959 16.9853 20.8749 16.8447 21.0156C16.704 21.1562 16.625 21.347 16.625 21.5459C16.625 21.7448 16.704 21.9356 16.8447 22.0763C16.9853 22.2169 17.1761 22.2959 17.375 22.2959H20.75C20.9489 22.2959 21.1397 22.2169 21.2803 22.0763C21.421 21.9356 21.5 21.7448 21.5 21.5459V18.1709C21.5 17.972 21.421 17.7812 21.2803 17.6406C21.1397 17.4999 20.9489 17.4209 20.75 17.4209ZM7.625 20.7959H5V18.1709C5 17.972 4.92098 17.7812 4.78033 17.6406C4.63968 17.4999 4.44891 17.4209 4.25 17.4209C4.05109 17.4209 3.86032 17.4999 3.71967 17.6406C3.57902 17.7812 3.5 17.972 3.5 18.1709V21.5459C3.5 21.7448 3.57902 21.9356 3.71967 22.0763C3.86032 22.2169 4.05109 22.2959 4.25 22.2959H7.625C7.82391 22.2959 8.01468 22.2169 8.15533 22.0763C8.29598 21.9356 8.375 21.7448 8.375 21.5459C8.375 21.347 8.29598 21.1562 8.15533 21.0156C8.01468 20.8749 7.82391 20.7959 7.625 20.7959ZM4.25 9.1709C4.44891 9.1709 4.63968 9.09189 4.78033 8.95123C4.92098 8.81058 5 8.61982 5 8.4209V5.7959H7.625C7.82391 5.7959 8.01468 5.71689 8.15533 5.57623C8.29598 5.43558 8.375 5.24482 8.375 5.0459C8.375 4.84699 8.29598 4.65623 8.15533 4.51557C8.01468 4.37492 7.82391 4.2959 7.625 4.2959H4.25C4.05109 4.2959 3.86032 4.37492 3.71967 4.51557C3.57902 4.65623 3.5 4.84699 3.5 5.0459V8.4209C3.5 8.61982 3.57902 8.81058 3.71967 8.95123C3.86032 9.09189 4.05109 9.1709 4.25 9.1709ZM12.5 20.0459C11.165 20.0459 9.85993 19.65 8.7499 18.9083C7.63987 18.1666 6.7747 17.1124 6.26381 15.879C5.75292 14.6456 5.61925 13.2884 5.8797 11.9791C6.14015 10.6697 6.78302 9.46694 7.72703 8.52293C8.67103 7.57893 9.87377 6.93605 11.1831 6.6756C12.4925 6.41515 13.8497 6.54883 15.0831 7.05972C16.3165 7.57061 17.3707 8.43577 18.1124 9.5458C18.8541 10.6559 19.25 11.9609 19.25 13.2959C19.248 15.0855 18.5362 16.8013 17.2708 18.0667C16.0053 19.3321 14.2896 20.0439 12.5 20.0459ZM10.25 13.2959C10.4725 13.2959 10.69 13.2299 10.875 13.1063C11.06 12.9827 11.2042 12.807 11.2894 12.6014C11.3745 12.3959 11.3968 12.1697 11.3534 11.9514C11.31 11.7332 11.2028 11.5328 11.0455 11.3754C10.8882 11.2181 10.6877 11.1109 10.4695 11.0675C10.2512 11.0241 10.0251 11.0464 9.81948 11.1316C9.61391 11.2167 9.43821 11.3609 9.3146 11.5459C9.19098 11.7309 9.125 11.9484 9.125 12.1709C9.125 12.4693 9.24353 12.7554 9.4545 12.9664C9.66548 13.1774 9.95163 13.2959 10.25 13.2959ZM15.3125 15.05C15.181 14.9008 14.9956 14.81 14.7971 14.7975C14.5986 14.7851 14.4033 14.8519 14.2541 14.9834C13.8969 15.2994 13.1291 15.5459 12.5 15.5459C11.8709 15.5459 11.1031 15.2994 10.7459 14.9834C10.6724 14.9165 10.5862 14.8648 10.4925 14.8315C10.3987 14.7981 10.2993 14.7838 10.2 14.7892C10.1006 14.7947 10.0034 14.8199 9.91385 14.8633C9.82434 14.9067 9.74436 14.9675 9.67856 15.0421C9.61277 15.1167 9.56248 15.2037 9.53062 15.2979C9.49877 15.3922 9.48598 15.4918 9.49301 15.5911C9.50003 15.6903 9.52673 15.7872 9.57155 15.876C9.61637 15.9648 9.67841 16.0438 9.75406 16.1084C10.4881 16.7562 11.6619 17.0459 12.5 17.0459C13.3381 17.0459 14.5119 16.7562 15.2459 16.1084C15.3951 15.9769 15.4859 15.7915 15.4984 15.593C15.5109 15.3945 15.444 15.1992 15.3125 15.05ZM15.875 12.1709C15.875 11.9484 15.809 11.7309 15.6854 11.5459C15.5618 11.3609 15.3861 11.2167 15.1805 11.1316C14.975 11.0464 14.7488 11.0241 14.5305 11.0675C14.3123 11.1109 14.1118 11.2181 13.9545 11.3754C13.7972 11.5328 13.69 11.7332 13.6466 11.9514C13.6032 12.1697 13.6255 12.3959 13.7106 12.6014C13.7958 12.807 13.94 12.9827 14.125 13.1063C14.31 13.2299 14.5275 13.2959 14.75 13.2959C15.0484 13.2959 15.3345 13.1774 15.5455 12.9664C15.7565 12.7554 15.875 12.4693 15.875 12.1709Z" fill="white"/>
</g>
</mask>
<g mask="url(#mask0_42_2549)">
<path d="M21.5 5.0459V8.4209C21.5 8.61982 21.421 8.81058 21.2803 8.95123C21.1397 9.09189 20.9489 9.1709 20.75 9.1709C20.5511 9.1709 20.3603 9.09189 20.2197 8.95123C20.079 8.81058 20 8.61982 20 8.4209V5.7959H17.375C17.1761 5.7959 16.9853 5.71689 16.8447 5.57623C16.704 5.43558 16.625 5.24482 16.625 5.0459C16.625 4.84699 16.704 4.65623 16.8447 4.51557C16.9853 4.37492 17.1761 4.2959 17.375 4.2959H20.75C20.9489 4.2959 21.1397 4.37492 21.2803 4.51557C21.421 4.65623 21.5 4.84699 21.5 5.0459ZM20.75 17.4209C20.5511 17.4209 20.3603 17.4999 20.2197 17.6406C20.079 17.7812 20 17.972 20 18.1709V20.7959H17.375C17.1761 20.7959 16.9853 20.8749 16.8447 21.0156C16.704 21.1562 16.625 21.347 16.625 21.5459C16.625 21.7448 16.704 21.9356 16.8447 22.0763C16.9853 22.2169 17.1761 22.2959 17.375 22.2959H20.75C20.9489 22.2959 21.1397 22.2169 21.2803 22.0763C21.421 21.9356 21.5 21.7448 21.5 21.5459V18.1709C21.5 17.972 21.421 17.7812 21.2803 17.6406C21.1397 17.4999 20.9489 17.4209 20.75 17.4209ZM7.625 20.7959H5V18.1709C5 17.972 4.92098 17.7812 4.78033 17.6406C4.63968 17.4999 4.44891 17.4209 4.25 17.4209C4.05109 17.4209 3.86032 17.4999 3.71967 17.6406C3.57902 17.7812 3.5 17.972 3.5 18.1709V21.5459C3.5 21.7448 3.57902 21.9356 3.71967 22.0763C3.86032 22.2169 4.05109 22.2959 4.25 22.2959H7.625C7.82391 22.2959 8.01468 22.2169 8.15533 22.0763C8.29598 21.9356 8.375 21.7448 8.375 21.5459C8.375 21.347 8.29598 21.1562 8.15533 21.0156C8.01468 20.8749 7.82391 20.7959 7.625 20.7959ZM4.25 9.1709C4.44891 9.1709 4.63968 9.09189 4.78033 8.95123C4.92098 8.81058 5 8.61982 5 8.4209V5.7959H7.625C7.82391 5.7959 8.01468 5.71689 8.15533 5.57623C8.29598 5.43558 8.375 5.24482 8.375 5.0459C8.375 4.84699 8.29598 4.65623 8.15533 4.51557C8.01468 4.37492 7.82391 4.2959 7.625 4.2959H4.25C4.05109 4.2959 3.86032 4.37492 3.71967 4.51557C3.57902 4.65623 3.5 4.84699 3.5 5.0459V8.4209C3.5 8.61982 3.57902 8.81058 3.71967 8.95123C3.86032 9.09189 4.05109 9.1709 4.25 9.1709ZM12.5 20.0459C11.165 20.0459 9.85993 19.65 8.7499 18.9083C7.63987 18.1666 6.7747 17.1124 6.26381 15.879C5.75292 14.6456 5.61925 13.2884 5.8797 11.9791C6.14015 10.6697 6.78302 9.46694 7.72703 8.52293C8.67103 7.57893 9.87377 6.93605 11.1831 6.6756C12.4925 6.41515 13.8497 6.54883 15.0831 7.05972C16.3165 7.57061 17.3707 8.43577 18.1124 9.5458C18.8541 10.6559 19.25 11.9609 19.25 13.2959C19.248 15.0855 18.5362 16.8013 17.2708 18.0667C16.0053 19.3321 14.2896 20.0439 12.5 20.0459ZM10.25 13.2959C10.4725 13.2959 10.69 13.2299 10.875 13.1063C11.06 12.9827 11.2042 12.807 11.2894 12.6014C11.3745 12.3959 11.3968 12.1697 11.3534 11.9514C11.31 11.7332 11.2028 11.5328 11.0455 11.3754C10.8882 11.2181 10.6877 11.1109 10.4695 11.0675C10.2512 11.0241 10.0251 11.0464 9.81948 11.1316C9.61391 11.2167 9.43821 11.3609 9.3146 11.5459C9.19098 11.7309 9.125 11.9484 9.125 12.1709C9.125 12.4693 9.24353 12.7554 9.4545 12.9664C9.66548 13.1774 9.95163 13.2959 10.25 13.2959ZM15.3125 15.05C15.181 14.9008 14.9956 14.81 14.7971 14.7975C14.5986 14.7851 14.4033 14.8519 14.2541 14.9834C13.8969 15.2994 13.1291 15.5459 12.5 15.5459C11.8709 15.5459 11.1031 15.2994 10.7459 14.9834C10.6724 14.9165 10.5862 14.8648 10.4925 14.8315C10.3987 14.7981 10.2993 14.7838 10.2 14.7892C10.1006 14.7947 10.0034 14.8199 9.91385 14.8633C9.82434 14.9067 9.74436 14.9675 9.67856 15.0421C9.61277 15.1167 9.56248 15.2037 9.53062 15.2979C9.49877 15.3922 9.48598 15.4918 9.49301 15.5911C9.50003 15.6903 9.52673 15.7872 9.57155 15.876C9.61637 15.9648 9.67841 16.0438 9.75406 16.1084C10.4881 16.7562 11.6619 17.0459 12.5 17.0459C13.3381 17.0459 14.5119 16.7562 15.2459 16.1084C15.3951 15.9769 15.4859 15.7915 15.4984 15.593C15.5109 15.3945 15.444 15.1992 15.3125 15.05ZM15.875 12.1709C15.875 11.9484 15.809 11.7309 15.6854 11.5459C15.5618 11.3609 15.3861 11.2167 15.1805 11.1316C14.975 11.0464 14.7488 11.0241 14.5305 11.0675C14.3123 11.1109 14.1118 11.2181 13.9545 11.3754C13.7972 11.5328 13.69 11.7332 13.6466 11.9514C13.6032 12.1697 13.6255 12.3959 13.7106 12.6014C13.7958 12.807 13.94 12.9827 14.125 13.1063C14.31 13.2299 14.5275 13.2959 14.75 13.2959C15.0484 13.2959 15.3345 13.1774 15.5455 12.9664C15.7565 12.7554 15.875 12.4693 15.875 12.1709Z" fill="#6B5EE0" stroke="#5546DD" stroke-width="1.5"/>
</g>
</g>
</svg>
