<svg width="55" height="55" viewBox="0 0 55 55" fill="none" xmlns="http://www.w3.org/2000/svg">
<circle cx="27.5" cy="27.5" r="27.5" fill="white"/>
<path d="M16.25 24.1406C16.25 23.2082 16.6204 22.314 17.2797 21.6547C17.939 20.9954 18.8332 20.625 19.7656 20.625H27.9219C28.8543 20.625 29.7485 20.9954 30.4078 21.6547C31.0671 22.314 31.4375 23.2082 31.4375 24.1406V32.8594C31.4375 33.7918 31.0671 34.686 30.4078 35.3453C29.7485 36.0046 28.8543 36.375 27.9219 36.375H19.7656C18.8332 36.375 17.939 36.0046 17.2797 35.3453C16.6204 34.686 16.25 33.7918 16.25 32.8594V24.1406ZM35.8852 34.9226L32.5625 32.6282V24.3707L35.8852 22.0768C37.0979 21.2398 38.7523 22.1077 38.7523 23.5815V33.4179C38.7523 34.8917 37.0979 35.7596 35.8852 34.9226Z" fill="#C4C4C4"/>
</svg>
