<svg width="55" height="55" viewBox="0 0 55 55" fill="none" xmlns="http://www.w3.org/2000/svg">
<circle cx="27.5" cy="27.5" r="27.5" fill="white"/>
<path fill-rule="evenodd" clip-rule="evenodd" d="M33.1266 34.3203C33.5722 33.8454 33.8575 33.2426 33.9422 32.5969L38.8016 34.7563C39.0394 34.8622 39.3 34.9071 39.5596 34.8867C39.8192 34.8664 40.0696 34.7815 40.288 34.6397C40.5065 34.498 40.686 34.3039 40.8104 34.0751C40.9347 33.8463 40.9999 33.5901 41 33.3297V21.6703C40.9998 21.4101 40.9346 21.1541 40.8103 20.9255C40.6861 20.6969 40.5067 20.5029 40.2885 20.3612C40.0702 20.2195 39.8201 20.1346 39.5607 20.114C39.3013 20.0935 39.0409 20.1381 38.8031 20.2437L33.9422 22.4031C33.8429 21.6517 33.4739 20.962 32.9039 20.4624C32.3339 19.9628 31.6017 19.6874 30.8438 19.6875H22.675L33.1266 34.3203ZM17.3234 20.2578C16.9144 20.5466 16.5807 20.9293 16.3504 21.3739C16.1201 21.8184 15.9999 22.3118 16 22.8125V32.1875C16 33.0163 16.3292 33.8112 16.9153 34.3972C17.5013 34.9833 18.2962 35.3125 19.125 35.3125H28.075L17.3234 20.2578ZM32.5516 38.8906L16.9266 17.0156L18.1984 16.1094L33.8234 37.9844L32.5516 38.8906Z" fill="#FF2929"/>
</svg>
